<svg xmlns="http://www.w3.org/2000/svg" fill="none" viewBox="0 0 142 37" height="37" width="142">
<g clip-path="url(#clip0_2012_1627)">
<path fill="#0F2D64" d="M138.773 17.8516C140.133 17.8516 141.281 18.9461 141.281 20.4107C141.281 21.8599 140.133 22.9699 138.773 22.9699C137.399 22.9699 136.266 21.8599 136.266 20.4107C136.251 18.9616 137.399 17.8516 138.773 17.8516ZM138.773 22.6153C139.922 22.6153 140.843 21.6595 140.843 20.4261C140.843 19.1774 139.922 18.237 138.773 18.237C137.625 18.237 136.704 19.1928 136.704 20.4261C136.704 21.6595 137.61 22.6153 138.773 22.6153ZM137.807 18.9153H138.909C139.604 18.9153 139.937 19.1928 139.937 19.7632C139.937 20.3182 139.604 20.5341 139.166 20.5957L140.012 21.9061H139.529L138.728 20.6266H138.245V21.9061H137.807V18.9153ZM138.26 20.2566H138.713C139.106 20.2566 139.499 20.2411 139.499 19.7632C139.499 19.347 139.151 19.3007 138.834 19.3007H138.245V20.2566H138.26Z"></path>
<path fill="#0F2D64" d="M50.25 16.065L54.0719 9.3125H61.7157L65.5377 16.065L61.7157 22.8175H54.0568L50.25 16.065ZM54.6006 10.2529L51.3074 16.065L54.6006 21.8771H61.1719L64.45 16.065L61.1719 10.2529H54.6006Z"></path>
<path fill="#0F2D64" d="M63.832 6.67594L67.2612 0.617188H74.1044L77.5335 6.67594L74.1044 12.7193H67.2612L63.832 6.67594ZM67.7899 1.5576L64.8895 6.67594L67.7899 11.7789H73.5757L76.461 6.67594L73.5757 1.5576H67.7899Z"></path>
<path fill="#0F2D64" d="M80.2676 5.42771L83.304 0.078125H89.3616L92.398 5.42771L89.3616 10.7773H83.304L80.2676 5.42771ZM83.8176 1.00313L81.3099 5.42771L83.8176 9.83687H88.8178L91.3103 5.42771L88.8178 1.00313H83.8176Z"></path>
<path fill="#0F2D64" d="M93.9395 9.45271L96.568 4.79688H101.84L104.469 9.45271L101.84 14.1085H96.568L93.9395 9.45271ZM97.0967 5.73729L94.9969 9.45271L97.0967 13.1681H101.311L103.411 9.45271L101.311 5.73729H97.0967Z"></path>
<path fill="#0F2D64" d="M104.832 15.7551L107.068 11.793H111.554L113.79 15.7551L111.554 19.7171H107.068L104.832 15.7551ZM107.612 12.7334L105.905 15.7551L107.612 18.7767H111.026L112.733 15.7551L111.026 12.7334H107.612Z"></path>
<path fill="#0F2D64" d="M0.71875 15.5547H3.49832V21.9064H10.8098V15.5547H13.5894V31.5109H10.8098V24.4809H3.49832V31.5109H0.71875V15.5547Z"></path>
<path fill="#0F2D64" d="M15.4023 20.7031H18.3179L21.2787 28.211H21.324L23.9677 20.7031H26.7321L21.7168 33.8381C20.9313 35.8577 20.0098 36.9215 17.6683 36.9215C16.9885 36.9215 16.2936 36.829 15.644 36.6594L15.9764 34.2235C16.3994 34.3777 16.8526 34.501 17.3209 34.501C18.62 34.501 18.9826 34.0231 19.4206 32.8977L19.9343 31.6027L15.4023 20.7031Z"></path>
<path fill="#0F2D64" d="M36.6857 29.8934H36.6404C35.8699 31.2039 34.4802 31.7897 32.9997 31.7897C29.7367 31.7897 27.7578 29.3076 27.7578 26.1164C27.7578 22.9097 29.8576 20.443 32.8789 20.443C34.8729 20.443 35.9304 21.3834 36.4742 22.0926H36.5497V14.4922H39.2085V31.5276H36.6857V29.8934ZM33.5285 29.3539C35.4772 29.3539 36.6404 27.7968 36.6404 26.1164C36.6404 24.4205 35.4772 22.8634 33.5285 22.8634C31.5948 22.8634 30.4165 24.4205 30.4165 26.1164C30.4165 27.7968 31.5948 29.3539 33.5285 29.3539Z"></path>
<path fill="#0F2D64" d="M42.2148 20.7033H44.8736V22.4145H44.9189C45.4929 21.1658 46.6712 20.4258 48.061 20.4258C48.3934 20.4258 48.6955 20.4874 49.0127 20.5799V23.2008C48.5746 23.0929 48.1517 23.0004 47.7438 23.0004C45.2361 23.0004 44.8887 25.1433 44.8887 25.7291V31.5104H42.23V20.7033H42.2148Z"></path>
<path fill="#0F2D64" d="M55.6456 20.4258C58.8482 20.4258 61.4163 22.7074 61.4163 26.0991C61.4163 29.5062 58.8482 31.7724 55.6456 31.7724C52.4431 31.7724 49.875 29.4908 49.875 26.0991C49.875 22.7074 52.4431 20.4258 55.6456 20.4258ZM55.6456 29.352C57.5944 29.352 58.7576 27.7949 58.7576 26.1145C58.7576 24.4187 57.5944 22.8616 55.6456 22.8616C53.6969 22.8616 52.5337 24.4187 52.5337 26.1145C52.5337 27.7949 53.6969 29.352 55.6456 29.352Z"></path>
<path fill="#0F2D64" d="M64.5112 15.5547H69.0129C71.2184 15.5547 74.0584 16.4334 74.0584 19.7634C74.0584 22.6464 71.8076 23.9414 69.3452 23.9414H65.9614V31.5109H64.4961V15.5547H64.5112ZM65.9765 22.5847H69.2848C70.9465 22.5847 72.5931 21.8601 72.5931 19.7634C72.5931 17.713 70.871 16.8959 69.1942 16.8959H65.9765V22.5847Z"></path>
<path fill="#0F2D64" d="M83.8333 29.554C82.791 31.1265 81.235 31.7894 79.4222 31.7894C76.3103 31.7894 74.2559 29.5077 74.2559 26.2856C74.2559 23.1715 76.3708 20.8281 79.3618 20.8281C82.4888 20.8281 84.1505 23.2794 84.1505 25.6998V26.6556H75.5852C75.5852 27.781 76.3557 30.5715 79.4525 30.5715C80.7969 30.5715 82.2169 29.8469 82.8816 28.7215L83.8333 29.554ZM82.8212 25.4223C82.8212 23.5723 81.2501 22.046 79.2863 22.046C76.3859 22.046 75.5701 24.8827 75.5701 25.4223H82.8212Z"></path>
<path fill="#0F2D64" d="M86.8242 21.1056H88.1536V22.9248H88.1989C89.0146 21.4756 90.767 20.8281 92.2776 20.8281C95.4198 20.8281 97.6404 23.1252 97.6404 26.301C97.6404 29.4769 95.4046 31.774 92.2776 31.774C90.7519 31.774 89.0146 31.1265 88.1989 29.6773H88.1536V36.6456H86.8242V21.1056ZM92.2776 30.5715C94.7702 30.5715 96.3261 28.6598 96.3261 26.3165C96.3261 23.9731 94.7853 22.0615 92.2776 22.0615C89.8757 22.0615 88.0176 23.9731 88.0176 26.3165C88.0176 28.6598 89.8606 30.5715 92.2776 30.5715Z"></path>
<path fill="#0F2D64" d="M105.587 22.3257H102.672V29.1091C102.672 30.0341 103.2 30.5736 104.077 30.5736C104.59 30.5736 105.119 30.4195 105.587 30.2191L105.693 31.437C105.209 31.622 104.484 31.7916 103.971 31.7916C102.067 31.7916 101.342 30.5891 101.342 29.1091V22.3257H99.1367V21.1078H101.342V18.1016H102.672V21.1078H105.587V22.3257Z"></path>
<path fill="#0F2D64" d="M108.652 21.1055H109.982V31.5117H108.652V21.1055Z"></path>
<path fill="#0F2D64" d="M122.174 29.693H122.129C121.313 31.1422 119.561 31.7897 118.05 31.7897C114.908 31.7897 112.688 29.4926 112.688 26.3168C112.688 23.1409 114.923 20.8439 118.05 20.8439C119.576 20.8439 121.313 21.4914 122.129 22.9405H122.174V14.4922H123.504V31.5276H122.174V29.693ZM118.05 22.0464C115.558 22.0464 114.002 23.958 114.002 26.3014C114.002 28.6447 115.543 30.5564 118.05 30.5564C120.452 30.5564 122.31 28.6447 122.31 26.3014C122.31 23.958 120.452 22.0464 118.05 22.0464Z"></path>
<path fill="#0F2D64" d="M135.769 29.554C134.727 31.1265 133.155 31.7894 131.358 31.7894C128.246 31.7894 126.191 29.5077 126.191 26.2856C126.191 23.1715 128.306 20.8281 131.297 20.8281C134.424 20.8281 136.086 23.2794 136.086 25.6998V26.6556H127.521C127.521 27.781 128.291 30.5715 131.388 30.5715C132.732 30.5715 134.152 29.8469 134.817 28.7215L135.769 29.554ZM134.742 25.4223C134.742 23.5723 133.171 22.046 131.207 22.046C128.321 22.046 127.491 24.8827 127.491 25.4223H134.742Z"></path>
</g>
<defs>
<clipPath id="clip0_2012_1627">
<rect fill="white" height="37" width="142"></rect>
</clipPath>
</defs>
</svg>
